<?xml version="1.0" encoding="utf-8" ?>
<svg baseProfile="full" height="256" version="1.1" width="256" xmlns="http://www.w3.org/2000/svg" xmlns:ev="http://www.w3.org/2001/xml-events" xmlns:xlink="http://www.w3.org/1999/xlink"><defs /><g transform="translate(-38.758269720101794,228.31552162849874) scale(0.3256997455470738,-0.3256997455470738)"><path d="M347 48Q362 50 378.5 51.0Q395 52 412 53H421Q442 53 464.5 54.5Q487 56 512 56Q537 56 559.5 55.5Q582 55 603 53H613Q630 53 645.5 51.5Q661 50 677 48Q733 41 743.5 18.5Q754 -4 754 -48H270Q270 -4 280.5 18.5Q291 41 347 48ZM481 555Q485 557 487.0 561.0Q489 565 489 570Q489 570 489.0 570.0Q489 570 489 570Q489 575 487.5 578.5Q486 582 483 585Q475 591 470.5 599.5Q466 608 466 617Q466 635 478.5 647.5Q491 660 509 660Q509 660 509.0 660.0Q509 660 509 660Q523 660 534.0 651.5Q545 643 548 630V629Q534 612 522.0 593.0Q510 574 500 553L499 551Q489 527 480.0 499.5Q471 472 465 443V440Q457 405 452.5 365.0Q448 325 448 283Q448 281 448.0 279.0Q448 277 448 274V275V256H576V273Q576 278 576.0 283.5Q576 289 576 295Q576 346 585.0 395.0Q594 444 612 490L611 486Q626 469 640.0 450.5Q654 432 666 413L667 410Q684 384 693.0 352.0Q702 320 703 285Q703 283 703.0 281.5Q703 280 703 278Q703 247 696.0 218.5Q689 190 676 164L677 166Q668 147 656.0 131.0Q644 115 630 101L617 92H563Q551 92 538.0 92.0Q525 92 512 92Q499 92 491.0 92.0Q483 92 474 92H403L394 101Q379 115 366.5 131.5Q354 148 346 167V169Q333 193 326.5 221.5Q320 250 320 280Q320 282 320.0 284.0Q320 286 320 288Q320 314 325.5 338.5Q331 363 342 385L341 384Q352 408 364.5 429.5Q377 451 392 470V469Q412 493 434.0 514.0Q456 535 480 554L481 555ZM780 32Q765 56 739.5 70.5Q714 85 684 85Q684 85 683.5 85.0Q683 85 683 85Q681 85 679.5 85.0Q678 85 676 85Q675 85 673.0 85.0Q671 85 670 85Q677 92 683.5 100.0Q690 108 695 117Q718 152 731.0 193.0Q744 234 744 279Q744 281 744.0 282.5Q744 284 744 285Q744 325 732.5 362.0Q721 399 701 431V430Q685 458 665.0 483.0Q645 508 622 529L603 550L589 526Q565 478 552.0 423.0Q539 368 539 309Q539 305 539.0 301.0Q539 297 539 293V294H486Q488 379 503 438Q518 497 534.5 534.5Q551 572 565 589Q579 606 580 606L588 613V623Q587 656 563.5 678.5Q540 701 507 701Q474 701 450.5 677.5Q427 654 427 621Q427 621 427.0 620.0Q427 619 427 619Q427 607 431.0 596.0Q435 585 441 576Q422 560 405.0 542.0Q388 524 372 505L371 504Q332 461 308.0 406.0Q284 351 280 288Q280 286 280.0 284.5Q280 283 280 282Q280 237 293.0 195.5Q306 154 330 119L329 120Q335 111 341.0 103.0Q347 95 355 88Q352 87 348.5 86.0Q345 85 341 85Q341 85 341.0 85.0Q341 85 341 85Q311 85 286.0 71.5Q261 58 246 35V34Q238 18 233.5 -0.5Q229 -19 229 -38Q229 -43 229.5 -48.0Q230 -53 230 -58V-57V-85H794V-56Q794 -52 794.5 -47.5Q795 -43 795 -38Q795 -18 790.5 0.5Q786 19 778 35V34Z" fill="black" /></g></svg>