<?xml version="1.0" encoding="utf-8" ?>
<svg baseProfile="full" height="256" version="1.1" width="256" xmlns="http://www.w3.org/2000/svg" xmlns:ev="http://www.w3.org/2001/xml-events" xmlns:xlink="http://www.w3.org/1999/xlink"><defs /><g transform="translate(-37.704171934260444,224.6068268015171) scale(0.32364096080910243,-0.32364096080910243)"><path d="M597 198V318Q610 329 626.0 335.5Q642 342 660 342Q677 342 691.5 333.5Q706 325 706 304Q706 291 694.0 275.5Q682 260 663 240Q654 230 644.0 219.5Q634 209 624 197Q618 197 611.0 197.5Q604 198 597 198ZM660 381Q632 379 607.5 368.0Q583 357 564 338L558 333V159H575Q584 159 607.5 157.5Q631 156 632 156H641L646 164Q658 177 669.0 189.5Q680 202 689 213Q711 237 727.0 258.0Q743 279 743 304Q743 336 720.0 358.5Q697 381 665 381Q664 381 662.5 381.0Q661 381 660 381ZM362 342Q380 342 396.0 335.5Q412 329 425 318V198Q418 198 411.5 198.0Q405 198 399 198Q388 210 378.5 220.5Q369 231 359 240Q340 261 328.5 276.0Q317 291 317 304Q317 325 332.0 333.5Q347 342 363 342ZM362 381Q360 381 358.0 381.0Q356 381 354 381Q322 381 299.5 358.5Q277 336 276 304Q276 279 292.0 258.0Q308 237 330 213Q341 203 352.0 190.5Q363 178 373 164L378 157H387Q387 157 413.5 158.0Q440 159 449 159H466V335L459 340Q441 358 416.5 369.0Q392 380 364 381H363ZM761 167Q740 148 721.5 126.5Q703 105 688 81L687 79Q686 77 685.0 75.5Q684 74 683 73Q683 73 683.0 73.5Q683 74 683 74Q644 78 600.5 80.5Q557 83 512 83Q467 83 422.5 80.5Q378 78 334 73L341 74Q341 74 341.0 74.0Q341 74 341 74Q341 74 341.0 75.5Q341 77 339 79Q323 104 304.5 126.0Q286 148 265 167H264Q249 182 234.5 198.5Q220 215 207 232L206 234Q194 250 187.5 269.5Q181 289 181 310Q181 313 181.0 315.5Q181 318 181 321Q181 379 221.5 419.5Q262 460 320 460Q320 460 320.5 460.0Q321 460 321 460Q355 460 387.5 453.0Q420 446 449 432L447 433L466 423L497 551H427V592H491V656H533V592H597V552H527L555 444L560 420L579 432Q607 445 638.5 452.5Q670 460 704 460Q705 460 706.5 460.0Q708 460 709 460Q767 460 807.5 419.5Q848 379 848 321Q848 319 848.0 316.5Q848 314 848 311V312Q848 290 841.5 270.5Q835 251 823 234V235Q809 217 794.0 200.5Q779 184 763 169V168ZM270 -60Q270 -57 269.5 -53.5Q269 -50 269 -47Q269 -34 271.5 -21.5Q274 -9 278 3V2Q282 11 293.0 19.5Q304 28 334 34H338Q339 34 340.0 33.5Q341 33 342 33Q344 33 345.0 33.5Q346 34 347 34Q383 39 425.0 42.0Q467 45 511 45H512Q513 45 513.5 45.0Q514 45 515 45Q558 45 600.0 43.0Q642 41 684 36H677Q678 36 679.0 36.0Q680 36 682 36Q683 36 684.0 36.0Q685 36 686 37V36H690Q708 36 722.5 27.0Q737 18 746 5V4Q750 -6 752.0 -18.5Q754 -31 754 -44Q754 -47 754.0 -50.5Q754 -54 754 -58V-57ZM790 141Q824 176 854.0 215.0Q884 254 884 312Q885 314 885.0 316.5Q885 319 885 322Q885 396 832.5 448.0Q780 500 706 500Q705 500 704.0 500.0Q703 500 702 500H703Q702 500 702.0 500.0Q702 500 701 500Q670 500 639.5 494.5Q609 489 581 478L584 479L576 516H635V628H571V694H453V628H389V514H448L440 478Q414 488 384.0 494.0Q354 500 322 500H321Q320 500 319.5 500.0Q319 500 318 500Q244 500 191.5 448.0Q139 396 139 322Q139 320 139.0 317.5Q139 315 140 313H139Q139 256 169.5 217.0Q200 178 234 143Q252 125 267.5 106.0Q283 87 297 66L299 65Q280 60 265.5 48.0Q251 36 243 19Q237 3 233.5 -14.5Q230 -32 230 -51Q230 -55 230.0 -59.0Q230 -63 230 -67V-97H794V-68Q794 -64 794.0 -60.0Q794 -56 794 -52Q794 -33 790.5 -15.0Q787 3 780 19L781 18Q773 35 758.5 47.0Q744 59 726 64L725 65Q740 86 756.0 105.0Q772 124 790 141Z" fill="black" /></g></svg>