<?xml version="1.0" encoding="utf-8" ?>
<svg baseProfile="full" height="256" version="1.1" width="256" xmlns="http://www.w3.org/2000/svg" xmlns:ev="http://www.w3.org/2001/xml-events" xmlns:xlink="http://www.w3.org/1999/xlink"><defs /><g transform="translate(-42.66666666666666,227.66666666666666) scale(0.3333333333333333,-0.3333333333333333)"><path d="M351 39 364 43Q370 45 376.5 46.5Q383 48 389 48H390Q426 52 467.5 54.5Q509 57 552 57Q552 57 552.5 57.0Q553 57 554 57Q554 57 555.0 57.0Q556 57 557 57Q599 57 641.0 54.5Q683 52 724 48H717Q719 48 720.5 48.0Q722 48 723 48L734 46Q762 40 772.5 31.0Q783 22 787 14Q790 3 791.5 -9.0Q793 -21 793 -34Q793 -37 793.0 -40.5Q793 -44 793 -47H310Q310 -44 310.0 -41.0Q310 -38 310 -34Q310 -22 312.0 -10.0Q314 2 317 14V12Q322 23 331.0 30.0Q340 37 351 39ZM537 256Q542 263 546.0 271.5Q550 280 552 289Q554 295 555.0 301.0Q556 307 556 313Q556 323 554.0 331.5Q552 340 548 347H549Q545 356 540.5 364.0Q536 372 529 379L517 396L483 357Q471 344 447.0 323.5Q423 303 398 303Q398 303 397.5 303.0Q397 303 397 303Q372 303 352.0 290.5Q332 278 321 258V257Q319 252 316.0 247.5Q313 243 309 239H310Q289 243 270.0 250.0Q251 257 234 267L235 266Q232 270 230.0 275.0Q228 280 228 285Q228 291 230.0 296.0Q232 301 235 305L298 395Q309 411 318.0 429.5Q327 448 333 467V469Q335 476 338.0 483.5Q341 491 344 500Q344 500 344.0 500.5Q344 501 344 501Q344 502 344.0 502.0Q344 502 344 503Q347 513 353.0 522.0Q359 531 368 537Q384 548 395.5 562.5Q407 577 415 594V595V597L424 636Q425 637 425.5 638.5Q426 640 426 640L491 575H497Q524 573 548.5 567.0Q573 561 595 551L593 552Q618 541 639.0 526.5Q660 512 679 495Q699 475 714.5 451.5Q730 428 741 401V399Q754 370 760.5 336.0Q767 302 767 266Q767 265 767.0 264.0Q767 263 767 262Q763 219 754.5 180.0Q746 141 734 103L735 108Q733 103 731.5 98.0Q730 93 729 88V85Q728 85 727.5 85.0Q727 85 726 85Q726 85 725.5 85.0Q725 85 724 85Q687 90 644.5 92.0Q602 94 558 94Q557 94 556.0 94.0Q555 94 553 94H554Q553 94 552.5 94.0Q552 94 552 94Q507 94 463.0 91.5Q419 89 376 85H383Q401 123 427.0 153.5Q453 184 486 208H487Q501 218 513.5 230.0Q526 242 537 255V256ZM822 26Q815 44 800.5 57.0Q786 70 768 76H767Q768 83 770.0 88.5Q772 94 774 100L773 98Q786 134 794.5 175.0Q803 216 806 259L807 262Q807 346 781 409Q756 473 714.0 516.0Q672 559 619 583Q565 607 508 613L445 675L438 683H429Q414 681 402.0 670.5Q390 660 387 645V644L379 608Q373 596 364.5 586.0Q356 576 345 569Q333 559 324.0 546.5Q315 534 310 520V519V516Q307 509 304.0 501.0Q301 493 298 484V482Q292 463 284.5 447.0Q277 431 266 416L267 417L204 332Q197 323 193.0 312.0Q189 301 189 290Q189 275 195.0 262.5Q201 250 211 241Q232 226 258.0 217.0Q284 208 312 205H313Q313 205 313.5 205.0Q314 205 314 205Q320 205 325.0 207.0Q330 209 333 212Q339 219 344.5 225.5Q350 232 355 238V239Q364 254 371.5 261.0Q379 268 398 268Q432 273 461.0 290.0Q490 307 511 332Q513 327 514.5 321.5Q516 316 516 310Q516 308 515.5 305.0Q515 302 515 300Q513 294 510.0 288.0Q507 282 503 277Q494 266 483.5 256.0Q473 246 461 238Q429 214 390.0 173.5Q351 133 340 76Q320 71 304.0 57.5Q288 44 279 26V25Q273 10 270.0 -7.0Q267 -24 267 -42Q267 -46 267.0 -50.5Q267 -55 267 -59V-58Q267 -60 267.0 -62.0Q267 -64 267 -66V-85H834V-56Q834 -52 834.5 -48.0Q835 -44 835 -40Q835 -22 831.5 -4.5Q828 13 822 29V28ZM422 512Q401 503 393.5 478.0Q386 453 386 453Q406 470 420.5 462.0Q435 454 454 470Q473 485 457.5 503.0Q442 521 422 512Z" fill="black" /></g></svg>