<?xml version="1.0" encoding="utf-8" ?>
<svg baseProfile="full" height="256" version="1.1" width="256" xmlns="http://www.w3.org/2000/svg" xmlns:ev="http://www.w3.org/2001/xml-events" xmlns:xlink="http://www.w3.org/1999/xlink"><defs /><g transform="translate(-59.245714285714286,237.34857142857143) scale(0.3657142857142857,-0.3657142857142857)"><path d="M464 286 469 328H389Q387 332 385.5 336.0Q384 340 383 344V345L472 404L438 437Q431 444 425.0 452.5Q419 461 416 471H415Q411 480 408.5 490.5Q406 501 406 512Q406 512 406.0 513.0Q406 514 406 514Q406 558 437.0 589.5Q468 621 513 621Q557 621 588.0 589.5Q619 558 619 514Q619 502 616.5 491.5Q614 481 610 471Q606 461 600.5 452.5Q595 444 587 437L553 404L642 345Q641 340 639.5 336.5Q638 333 636 329H554L560 287Q562 263 569.5 241.0Q577 219 588 200V201Q606 170 630.5 145.5Q655 121 685 102L686 101Q713 82 729.5 52.5Q746 23 746 -12H277Q277 23 293.5 52.5Q310 82 336 101H337Q367 120 392.0 145.0Q417 170 435 200V201Q446 220 453.0 241.0Q460 262 463 284L464 286ZM708 133Q665 157 636.0 198.0Q607 239 599 289V290H658L665 303Q665 303 665.0 304.5Q665 306 667 307Q673 316 676.5 326.5Q680 337 680 349Q680 350 680.0 350.5Q680 351 680 352V351V364L670 371L613 408Q633 428 644.5 454.5Q656 481 656 511Q653 569 611.0 609.0Q569 649 511 649Q453 649 411.5 609.0Q370 569 366 512V511Q366 511 366.0 511.0Q366 511 366 511Q366 481 377.5 454.5Q389 428 409 408L342 364V351Q342 351 342.0 350.0Q342 349 342 349Q342 337 345.5 326.0Q349 315 355 306V307Q355 305 356.0 304.0Q357 303 358 303L364 290H426Q419 239 390.0 198.0Q361 157 318 133H317Q281 107 259.5 67.0Q238 27 238 -20Q238 -23 238.0 -25.5Q238 -28 238 -30V-51H786V-28Q786 -26 786.0 -23.5Q786 -21 786 -18Q786 28 765.0 68.0Q744 108 709 133H708Z" fill="black" /></g></svg>