<?xml version="1.0" encoding="utf-8" ?>
<svg baseProfile="full" height="256" version="1.1" width="256" xmlns="http://www.w3.org/2000/svg" xmlns:ev="http://www.w3.org/2001/xml-events" xmlns:xlink="http://www.w3.org/1999/xlink"><defs /><g transform="translate(-43.33594771241829,227.89019607843136) scale(0.33464052287581697,-0.33464052287581697)"><path d="M674 95 672 90Q639 93 601.5 95.0Q564 97 526 97Q523 97 520.0 97.0Q517 97 514 97H515Q514 97 512.5 97.0Q511 97 509 97Q468 97 428.0 94.5Q388 92 348 86L354 87V91L226 397H213Q205 397 198.0 400.5Q191 404 185 410Q179 415 176.0 423.0Q173 431 173 440Q173 440 173.0 440.5Q173 441 173 442Q173 442 173.0 442.5Q173 443 173 444Q173 453 176.0 461.0Q179 469 185 475Q191 481 199.5 484.5Q208 488 217 488Q236 488 250.0 474.5Q264 461 264 442Q263 434 261.0 427.5Q259 421 256 416L246 404L388 250L403 545L388 548Q381 549 374.5 553.0Q368 557 364 563Q359 569 356.0 576.5Q353 584 353 592Q353 592 353.0 592.5Q353 593 353 593Q353 613 367.5 627.5Q382 642 402 642Q402 642 402.5 642.0Q403 642 403 642Q413 642 422.0 638.0Q431 634 437 628Q444 621 448.0 612.0Q452 603 452 593Q452 581 446.5 570.5Q441 560 431 553L418 546L512 275L607 547L594 554Q584 560 577.5 570.0Q571 580 571 592Q571 592 571.0 592.0Q571 592 571 593Q572 613 586.0 627.5Q600 642 621 642Q621 642 621.5 642.0Q622 642 622 642Q622 642 622.5 642.0Q623 642 623 642Q643 642 657.5 627.5Q672 613 672 593Q672 593 672.0 592.5Q672 592 672 592Q671 576 661.5 564.5Q652 553 637 549L622 547L636 251L782 406L771 417Q767 423 764.0 429.5Q761 436 760 444Q760 463 773.5 476.5Q787 490 806 490Q807 490 807.5 490.0Q808 490 808 490Q817 490 825.0 486.5Q833 483 839 477Q845 471 848.5 462.5Q852 454 852 444Q852 435 848.5 426.5Q845 418 839 412Q833 407 826.0 403.5Q819 400 811 399H800ZM270 -46Q270 -44 269.5 -41.5Q269 -39 269 -36Q269 -23 271.5 -10.5Q274 2 278 14L277 13Q280 21 289.5 30.0Q299 39 324 45Q330 46 336.0 46.5Q342 47 348 47H352Q388 52 428.5 54.0Q469 56 511 56Q512 56 513.0 56.0Q514 56 515 56Q556 56 591.5 54.5Q627 53 657 50L678 47Q733 40 744.0 17.5Q755 -5 755 -49ZM806 527Q789 527 773.5 520.5Q758 514 747 503Q735 492 728.0 476.5Q721 461 721 443Q721 433 724.0 424.0Q727 415 732 407L670 343L661 514Q683 524 697.0 544.5Q711 565 711 590Q711 591 711.0 591.0Q711 591 711 591Q711 628 685.5 653.5Q660 679 623 679Q623 679 622.5 679.0Q622 679 622 679Q622 679 622.0 679.0Q622 679 622 679Q586 679 560.0 654.0Q534 629 533 593Q533 574 540.5 558.5Q548 543 560 531L512 393L464 531Q476 543 483.5 558.5Q491 574 491 593Q491 593 491.0 593.0Q491 593 491 593Q491 629 465.0 655.0Q439 681 403 681Q402 681 401.0 681.0Q400 681 399 681Q364 681 339.0 656.0Q314 631 314 596Q314 595 314.0 594.0Q314 593 314 592V593Q314 592 314.0 591.0Q314 590 314 589Q314 564 327.5 544.0Q341 524 362 514H363L355 343L294 407Q299 416 302.0 426.5Q305 437 305 448Q305 483 280.0 508.0Q255 533 219 533Q184 533 159.0 508.0Q134 483 134 448Q134 447 134.0 445.5Q134 444 134 443Q134 413 152.5 390.5Q171 368 198 361H199L314 83Q292 79 274.5 66.5Q257 54 246 36H245Q238 20 234.0 1.5Q230 -17 230 -37Q230 -42 230.0 -46.5Q230 -51 231 -56V-55V-84H793V-54Q794 -50 794.0 -45.5Q794 -41 794 -36Q794 -16 790.0 2.5Q786 21 778 38L779 37Q769 55 752.0 67.0Q735 79 714 83Q714 83 712.5 83.0Q711 83 710 83L826 360Q854 368 872.0 390.5Q890 413 890 442Q890 477 865.5 502.0Q841 527 806 527Z" fill="black" /></g></svg>