<?xml version="1.0" encoding="utf-8" ?>
<svg baseProfile="full" height="256" version="1.1" width="256" xmlns="http://www.w3.org/2000/svg" xmlns:ev="http://www.w3.org/2001/xml-events" xmlns:xlink="http://www.w3.org/1999/xlink"><defs /><g transform="translate(-56.08988764044943,235.5056179775281) scale(0.3595505617977528,-0.3595505617977528)"><path d="M332 75 346 77Q382 82 423.5 84.0Q465 86 508 86Q509 86 510.0 86.0Q511 86 512 86Q513 86 513.5 86.0Q514 86 515 86Q558 86 600.0 84.0Q642 82 684 77H677L691 75Q720 69 730.5 59.5Q741 50 745 42Q749 31 751.0 19.0Q753 7 753 -5Q753 -9 753.0 -12.5Q753 -16 753 -19H270Q270 -16 269.5 -12.5Q269 -9 269 -5Q269 7 271.5 19.0Q274 31 278 43V42Q282 50 292.5 59.5Q303 69 332 75ZM355 597 374 512H466L479 612Q485 612 494.0 612.0Q503 612 512 612Q521 612 530.0 612.0Q539 612 545 612L558 511H650L669 596Q681 595 692.0 592.5Q703 590 713 586H712L704 491Q703 472 691.0 458.0Q679 444 662 440H661Q629 445 591.0 448.0Q553 451 514 452H512Q472 452 432.5 449.0Q393 446 354 441H361Q343 446 331.5 460.0Q320 474 318 492V493L312 587Q322 591 332.5 593.5Q343 596 354 597H355ZM384 404Q412 408 444.5 410.5Q477 413 511 414H512Q547 413 580.0 410.5Q613 408 646 403L640 404V399Q643 375 647 337Q652 299 657.0 258.0Q662 217 666 179Q671 141 675 116Q638 120 596.0 122.5Q554 125 511 125Q467 125 424.5 122.5Q382 120 340 115L347 116Q350 141 355 179Q360 217 365.0 258.0Q370 299 374 337Q379 375 381 399ZM782 57Q772 77 755.0 90.5Q738 104 716 108V109Q713 130 708 171Q703 212 697.5 257.0Q692 302 687 342Q682 383 680 404Q706 413 723.5 435.5Q741 458 742 487L751 595V609L739 615Q720 625 699.0 631.0Q678 637 655 637Q654 637 654.0 637.0Q654 637 653 637H640L636 620L621 551H593L584 630V647L567 650Q555 652 541.0 653.0Q527 654 512 655Q498 654 484.5 653.0Q471 652 457 649L460 650L443 647V630L434 551H404L389 620L384 637H369Q368 637 368.0 637.0Q368 637 367 637Q344 637 322.5 631.0Q301 625 282 615H283L271 609V595L282 487Q283 458 300.5 436.0Q318 414 344 405Q342 384 337 343Q332 303 326.5 258.0Q321 213 316 172Q311 131 308 109Q286 105 269.0 91.0Q252 77 242 58V57Q236 42 233.0 24.5Q230 7 230 -11Q230 -16 230.0 -20.0Q230 -24 230 -29V-28V-57H794V-28Q794 -24 794.0 -20.0Q794 -16 794 -11Q794 7 791.0 24.5Q788 42 782 59V57Z" fill="black" /></g></svg>