<?xml version="1.0" encoding="utf-8" ?>
<svg baseProfile="full" height="256" version="1.1" width="256" xmlns="http://www.w3.org/2000/svg" xmlns:ev="http://www.w3.org/2001/xml-events" xmlns:xlink="http://www.w3.org/1999/xlink"><defs /><g transform="translate(-38.97070063694267,228.28025477707004) scale(0.32611464968152865,-0.32611464968152865)"><path d="M779 34Q763 57 738.0 71.0Q713 85 683 85Q681 85 679.5 85.0Q678 85 676 85Q675 85 673.0 85.0Q671 85 670 85Q677 92 683.5 100.0Q690 108 695 117Q718 152 731.0 193.0Q744 234 744 279Q744 281 744.0 282.5Q744 284 744 285Q743 325 732.0 362.0Q721 399 700 431L701 430Q684 458 664.5 483.0Q645 508 622 529L602 550L588 526Q564 478 551.0 422.0Q538 366 538 306Q538 303 538.0 300.0Q538 297 538 293V294H487Q489 379 503 438Q518 497 535.0 534.5Q552 572 565 589Q579 606 579 606L587 613V625Q584 656 561.5 677.5Q539 699 508 700Q508 700 507.5 700.0Q507 700 507 700Q474 700 450.5 676.5Q427 653 427 620Q427 619 427.0 619.0Q427 619 427 619Q427 607 431.0 596.0Q435 585 442 576Q422 560 405.0 542.0Q388 524 373 505L372 504Q332 461 308.0 406.0Q284 351 281 288Q281 287 281.0 285.5Q281 284 281 283Q281 238 293.5 196.0Q306 154 329 119L328 120Q334 111 340.5 103.0Q347 95 354 88Q351 87 348.0 86.0Q345 85 341 85Q341 85 341.0 85.0Q341 85 340 85Q311 85 286.0 71.5Q261 58 245 35V34Q238 18 234.0 -0.5Q230 -19 230 -38Q230 -43 230.0 -48.0Q230 -53 231 -58V-57V-85H793V-56Q794 -52 794.0 -47.5Q794 -43 794 -38Q794 -18 790.0 0.0Q786 18 779 35V34Z" fill="black" /></g></svg>