<?xml version="1.0" encoding="utf-8" ?>
<svg baseProfile="full" height="256" version="1.1" width="256" xmlns="http://www.w3.org/2000/svg" xmlns:ev="http://www.w3.org/2001/xml-events" xmlns:xlink="http://www.w3.org/1999/xlink"><defs /><g transform="translate(-37.28625472887767,224.36317780580075) scale(0.3228247162673392,-0.3228247162673392)"><path d="M706 304Q706 291 693.5 275.5Q681 260 662 240Q652 231 642.0 220.0Q632 209 620 197L595 196L596 319Q610 330 626.0 336.0Q642 342 659 343Q676 343 691.0 334.0Q706 325 706 304ZM317 305Q316 326 330.5 335.0Q345 344 363 344Q380 344 396.0 338.0Q412 332 426 321V201L400 200Q389 213 379.5 223.5Q370 234 360 244Q341 262 329.0 277.0Q317 292 317 305ZM790 142Q825 176 855.0 215.0Q885 254 885 312Q886 330 883.5 348.0Q881 366 874 384Q867 401 857.5 416.5Q848 432 835 445Q822 458 806.5 468.5Q791 479 774 485Q757 492 739.0 495.5Q721 499 702 498Q672 498 642.0 493.0Q612 488 583 477L576 514L635 516L634 536L635 610L634 631L570 629L569 672V695L451 692V672L452 629L388 627L389 607V537V515L448 517L440 481Q412 491 382.0 496.0Q352 501 321 502Q303 502 285.0 499.0Q267 496 250 489Q232 482 217.0 471.5Q202 461 189 448Q176 435 166.0 419.5Q156 404 150 386Q143 369 140.5 351.0Q138 333 139 314Q140 257 169.0 217.5Q198 178 233 144Q251 126 267.5 106.5Q284 87 298 66Q289 64 280.5 59.5Q272 55 264 48Q257 42 251.5 34.5Q246 27 242 18Q233 -3 230.0 -24.5Q227 -46 228 -68L229 -97H251L770 -98L792 -97L791 -75V-68Q793 -46 789.5 -24.5Q786 -3 778 17Q774 26 768.0 33.5Q762 41 755 47Q748 53 739.5 57.0Q731 61 722 63Q737 85 753.5 104.5Q770 124 788 141L790 142Z" fill="black" /></g></svg>