<?xml version="1.0" encoding="utf-8" ?>
<svg baseProfile="full" height="256" version="1.1" width="256" xmlns="http://www.w3.org/2000/svg" xmlns:ev="http://www.w3.org/2001/xml-events" xmlns:xlink="http://www.w3.org/1999/xlink"><defs /><g transform="translate(-42.66666666666666,227.66666666666666) scale(0.3333333333333333,-0.3333333333333333)"><path d="M454 472Q434 457 419.5 465.0Q405 473 386 455Q386 455 393.5 480.0Q401 505 422 514Q443 523 456.5 504.0Q470 485 454 472ZM822 28Q814 45 800.0 58.0Q786 71 768 76H767Q768 83 770.0 88.5Q772 94 774 100L773 98Q786 134 794.5 175.0Q803 216 806 259L807 262Q807 346 781 409Q756 473 714.0 516.0Q672 559 619 583Q565 607 508 613L445 675L438 683H429Q414 681 402.0 670.5Q390 660 387 645V644L379 608Q373 596 364.5 586.0Q356 576 345 569Q333 559 324.0 546.5Q315 534 310 520V519V516Q307 509 304.0 501.0Q301 493 298 484V482Q292 463 284.5 447.0Q277 431 266 416L267 417L204 332Q197 323 193.0 312.0Q189 301 189 290Q189 275 195.0 262.5Q201 250 211 241Q232 226 258.0 217.0Q284 208 312 205H313Q313 205 313.5 205.0Q314 205 314 205Q320 205 325.0 207.0Q330 209 333 212Q339 219 344.5 225.5Q350 232 355 238V239Q364 254 371.5 261.0Q379 268 398 268Q432 273 461.0 290.0Q490 307 511 332Q513 327 514.5 321.5Q516 316 516 310Q516 308 515.5 305.0Q515 302 515 300Q513 294 510.0 288.0Q507 282 503 277Q494 266 483.5 256.0Q473 246 461 238Q429 214 390.0 173.5Q351 133 340 76Q320 71 304.0 57.5Q288 44 279 26V25Q273 10 270.0 -7.0Q267 -24 267 -42Q267 -46 267.0 -50.5Q267 -55 267 -59V-58Q267 -60 267.0 -62.0Q267 -64 267 -66V-85H834V-56Q834 -52 834.5 -48.0Q835 -44 835 -40Q835 -22 831.5 -4.5Q828 13 822 29V28Z" fill="black" /></g></svg>