<?xml version="1.0" encoding="utf-8" ?>
<svg baseProfile="full" height="256" version="1.1" width="256" xmlns="http://www.w3.org/2000/svg" xmlns:ev="http://www.w3.org/2001/xml-events" xmlns:xlink="http://www.w3.org/1999/xlink"><defs /><g transform="translate(-57.3917963224894,236.08486562942008) scale(0.3620933521923621,-0.3620933521923621)"><path d="M707 130Q663 154 634.0 194.5Q605 235 597 285V287H657L663 299Q664 300 665.0 301.0Q666 302 666 303Q672 312 675.5 322.5Q679 333 679 345Q679 346 679.0 346.5Q679 347 679 348V361L669 367L612 404Q633 424 645.0 451.0Q657 478 657 508Q657 568 615.0 610.0Q573 652 513 652Q513 652 512.5 652.0Q512 652 512 652Q512 652 511.5 652.0Q511 652 511 652Q451 652 409.0 610.0Q367 568 367 509Q367 478 378.5 451.5Q390 425 409 405L353 368L343 362V349Q343 348 343.0 347.5Q343 347 343 347Q343 335 346.5 324.0Q350 313 356 304Q356 304 356.0 302.5Q356 301 358 300L365 287H424Q417 236 388.0 195.0Q359 154 317 130H316Q280 104 258.5 64.5Q237 25 237 -22Q237 -25 237.0 -27.5Q237 -30 238 -33V-55H787V-32Q787 -30 787.0 -27.5Q787 -25 787 -23Q787 24 765.0 64.0Q743 104 707 130Z" fill="black" /></g></svg>