<?xml version="1.0" encoding="utf-8" ?>
<svg baseProfile="full" height="256" version="1.1" width="256" xmlns="http://www.w3.org/2000/svg" xmlns:ev="http://www.w3.org/2001/xml-events" xmlns:xlink="http://www.w3.org/1999/xlink"><defs /><g transform="translate(-43.33594771241829,227.89019607843136) scale(0.33464052287581697,-0.33464052287581697)"><path d="M805 527Q788 527 773.0 520.5Q758 514 747 503Q735 492 728.5 476.5Q722 461 722 444Q722 434 724.0 424.5Q726 415 731 406V407L670 343L662 513Q684 524 697.5 544.5Q711 565 711 590Q711 627 685.0 653.0Q659 679 622 679Q586 679 560.0 653.0Q534 627 534 590Q534 572 541.0 556.0Q548 540 560 529L513 393L465 531Q477 543 484.0 558.5Q491 574 491 592Q491 629 465.0 655.0Q439 681 403 681Q366 681 340.0 655.0Q314 629 314 592Q314 592 314.0 591.5Q314 591 314 591Q314 565 327.5 544.5Q341 524 362 514V513L355 343L293 407Q298 414 300.5 423.5Q303 433 304 443Q303 460 296.0 475.5Q289 491 277 503Q265 514 250.5 520.5Q236 527 219 527Q183 527 158.0 502.0Q133 477 133 442Q134 412 152.0 389.5Q170 367 197 360L313 82Q292 78 274.0 66.0Q256 54 245 36Q238 20 234.0 2.0Q230 -16 230 -36Q230 -41 230.5 -46.0Q231 -51 232 -56L231 -55V-84H794V-54Q794 -50 794.5 -45.5Q795 -41 795 -36Q795 -17 791.0 2.0Q787 21 779 38V36Q768 54 751.0 66.0Q734 78 714 82L713 83H711L826 360Q854 367 872.0 390.0Q890 413 891 442Q890 477 865.5 502.0Q841 527 805 527Q805 527 805.0 527.0Q805 527 805 527Z" fill="black" /></g></svg>