<?xml version="1.0" encoding="utf-8" ?>
<svg baseProfile="full" height="256" version="1.1" width="256" xmlns="http://www.w3.org/2000/svg" xmlns:ev="http://www.w3.org/2001/xml-events" xmlns:xlink="http://www.w3.org/1999/xlink"><defs /><g transform="translate(-56.34880450070324,235.47679324894514) scale(0.360056258790436,-0.360056258790436)"><path d="M782 58Q772 77 755.0 90.5Q738 104 716 109Q713 130 708 171Q703 212 697.5 257.0Q692 302 687 343Q682 383 680 404Q706 414 723.5 436.0Q741 458 742 486L751 594V608L739 614Q720 625 699.0 630.5Q678 636 655 636Q654 636 654.0 636.0Q654 636 653 636H640L636 620L621 550H593L584 630V646L567 649Q555 651 541.0 652.5Q527 654 512 654Q498 654 484.5 652.5Q471 651 457 649H460L443 646V630L434 550H404L389 620L384 636H369Q368 636 368.0 636.0Q368 636 367 636Q344 636 322.5 630.5Q301 625 282 614H283L271 608V594L282 486Q283 458 300.5 436.0Q318 414 344 405V404Q342 383 337 343Q332 302 326.5 257.0Q321 212 316 171Q311 130 308 109Q287 104 269.5 90.5Q252 77 242 58Q236 42 233.0 24.5Q230 7 230 -11Q230 -16 230.0 -20.0Q230 -24 230 -28V-57H794V-27Q794 -24 794.0 -19.5Q794 -15 794 -11Q794 7 791.0 25.0Q788 43 782 59V58Z" fill="black" /></g></svg>